<svg xmlns="http://www.w3.org/2000/svg" viewBox="0 0 193.8 277.71"><defs><style>.cls-1{fill:#be8a40;}.cls-1,.cls-2,.cls-5{fill-rule:evenodd;}.cls-2{fill:#fff;}.cls-3{fill:#eb2227;}.cls-4{fill:#2683c6;}.cls-5{fill:#231f20;}</style></defs><g id="Слой_2" data-name="Слой 2"><g id="Layer_1" data-name="Layer 1"><path class="cls-1" d="M96.63,9,171.57,77S191,94,186.63,114.76,170.71,144.5,166,147.51h9.6s19.44-16,18.11-40.41c-.82-14.93-3.23-23.71-29.86-46.54C145.48,43.5,96.63,0,96.63,0L18.68,70.6S2.61,84,.27,104.39s11,37.1,18.07,43.12H29.05S5,132.16,7.3,108.74,19.68,77.62,42.1,58.22,96.63,9,96.63,9Z"/><path class="cls-2" d="M112.73,101.5c-.44-25.39,22.52-41.29,28.38-46C125.42,41.32,96.77,15.91,96.77,15.91L31.58,73.59S4.32,95.17,15.39,125c5.12,12.49,20.43,22.29,20.43,22.29s95.55.26,103.08.26c-10.18-9.16-25.72-20.66-26.17-46Z"/><path class="cls-3" d="M168.7,81.69c-3-2.9-6.09-5.93-9.31-9-4.47,3.81-21.85,16.94-21.51,37.53s14.54,29.93,22.3,37.36h0s18.21-10.36,20.55-32.42C181.68,106.06,178.5,91.49,168.7,81.69Z"/><path class="cls-4" d="M137.88,110.19c-.34-20.59,17-33.72,21.51-37.53h0C141,54.89,127.65,43.09,123,39.18l-.28-.24L107,53.84,77.66,81.49s-22.29,21.17-12.94,43.56c5.24,12.55,17,22.49,17,22.49h78.39s0,0,0,0C152.43,140.08,138.21,130.78,137.88,110.19Z"/><path class="cls-5" d="M28.42,162.14v23.78s.28,1.67-1.15,1.67H24.86v1.61H38.3v-1.67H35.6s-1.1.52-1.1-1.78.12-23.55.12-23.55,5.11-.75,6,2.35,1.21,6.61,3.22,5.35c.86-1.15-.06-3.16,1.84-6.38,0,0,2.53-3-.52-3s-25.56-.23-25.56-.23-3.85-.63-2.59,2.64a7.45,7.45,0,0,1,1.5,3.16c.11,1.43-.12,4.71,1.26,3.9s1.44-.91,1.73-2.29.63-5.46,2.93-5.52,4,0,4,0Z"/><path class="cls-5" d="M76.1,166.91H74.37a11.15,11.15,0,0,0-7-6.09c-5.11-1.38-12.23-.12-15.1,3.56s-4.48,8.56-2.3,13.73,5.74,4.37,5.68,11c2.19.63,6.44,1.9,10.92-.06s7.64-7,7.64-7h1.61v-1.55h-11v1.55h1.89s.12,3.56-2.47,4.77-3.16,1.38-5.92,1.26a21.3,21.3,0,0,0-1-8.61c-1.26-3.39-2.07-5.75,1.26-6.72s4.14.46,4.77,2.06H61.68v1.55H71.9v-1.55H70.35s-1.32-3.73-4.83-4.42a12,12,0,0,0-9,1.78c0-2.93-.4-7.47,2.29-9s6.09-1.09,7.59.81,1.2,2.7,1.2,2.7H65.93v1.84H76.15l-.05-1.67Z"/><path class="cls-5" d="M132.32,166.91H130.6a11.18,11.18,0,0,0-7-6.09c-5.11-1.38-12.23-.12-15.11,3.56s-4.48,8.56-2.29,13.73,5.74,4.37,5.68,11c2.19.63,6.44,1.9,10.92-.06s7.64-7,7.64-7H132v-1.55h-11v1.55H123s.11,3.56-2.47,4.77-3.16,1.38-5.92,1.26a21.3,21.3,0,0,0-1-8.61c-1.27-3.39-2.07-5.75,1.26-6.72s4.13.46,4.77,2.06H117.9v1.55h10.23v-1.55h-1.55s-1.32-3.73-4.83-4.42a12,12,0,0,0-9,1.78c0-2.93-.4-7.47,2.3-9s6.09-1.09,7.58.81,1.21,2.7,1.21,2.7h-1.67v1.84h10.23l-.06-1.67Z"/><path class="cls-5" d="M90.17,160.48c-7,1-8.73,6.27-8.73,6.27v21.07H77.93v1.72H91.14v-1.89l-3.1.11v-9.42l2.76-3.1A6.36,6.36,0,0,0,96,176.33c4.36-.69,5.74-3.73,5.91-8.39s-4.76-8.44-11.77-7.46Zm2.58,13.09a2.62,2.62,0,0,1-2.29-.69l-2.59,3.22v-8.56s-.63-5.4,3.22-5.51,3.85,4.07,3.9,6.26-.57,5.17-2.24,5.28Z"/><path class="cls-5" d="M141.47,161.28V163h3.67s.63,3.44-5.34,10.68-6,12.35-5.29,16.55c2.36-.12,7.07,0,7.07,0a24.11,24.11,0,0,0-.29-6.78A16.84,16.84,0,0,1,143,173c1.43-2.76,2.7-4.89,2.7-4.89l4.71,20.17H148V190h12.29v-1.67h-2.65l4.49-20,4.36,20h-1.89V190h11.14v-1.66H173L167.66,163h2.53v-1.72H159V163h1.66L156.11,185,151.06,163h2.3v-1.66l-11.89-.06Z"/><polygon class="cls-1" points="20.56 196.51 20.56 199.75 175.19 199.75 175.19 196.51 20.56 196.51 20.56 196.51"/><polygon class="cls-1" points="20.56 204.2 20.56 207.59 175.19 207.59 175.19 204.2 20.56 204.2 20.56 204.2"/><path class="cls-1" d="M20.56,219.75V223H57.27a13,13,0,0,1,14.94,0h50.67a13.61,13.61,0,0,1,15.77,0h36.54v-3.23Z"/><path class="cls-1" d="M20.56,227.32v3.19H51.29A16.79,16.79,0,0,1,53,227.32Z"/><path class="cls-1" d="M20.56,234.94v3.39H49.47c.15-1.1.23-2.31.46-3.4Z"/><path class="cls-1" d="M76.31,227.33c14.2,0,28.68,0,42.88,0a18.32,18.32,0,0,0-1.51,3.2H77.9a27.85,27.85,0,0,0-1.59-3.19Z"/><path class="cls-1" d="M78.88,235c.15,1.06.35,2.26.42,3.38h36.83a30,30,0,0,1,.37-3.39Z"/><polygon class="cls-1" points="79.3 242.88 79.3 246.24 116.44 246.23 116.45 242.88 79.3 242.88 79.3 242.88"/><polygon class="cls-1" points="79.3 250.62 79.3 254.08 116.46 254.09 116.45 250.62 79.3 250.62 79.3 250.62"/><polygon class="cls-1" points="79.3 258.66 116.45 258.66 116.45 262.07 79.3 262.07 79.3 258.66 79.3 258.66"/><polygon class="cls-1" points="79.3 266.56 116.45 266.56 116.45 269.94 79.3 269.94 79.3 266.56 79.3 266.56"/><polygon class="cls-1" points="79.3 274.38 116.45 274.38 116.45 277.71 79.3 277.71 79.3 274.38 79.3 274.38"/><polygon class="cls-1" points="20.56 242.88 20.56 246.24 49.56 246.24 49.56 242.88 20.56 242.88 20.56 242.88"/><path class="cls-1" d="M20.56,211.94v3.19c51.28.14,103.2.06,154.63,0v-3.19Z"/><polygon class="cls-1" points="145.89 242.89 145.89 246.24 175.19 246.24 175.19 242.88 145.89 242.89 145.89 242.89"/><path class="cls-1" d="M175.19,234.94v3.39l-29.15,0c-.15-1.11-.26-2.26-.48-3.35Z"/><path class="cls-1" d="M175.19,227.32v3.19h-31a17.36,17.36,0,0,0-1.82-3.19Z"/></g></g></svg>